<?xml version="1.0" encoding="utf-8"?>
<!-- Generator: Adobe Illustrator 17.1.0, SVG Export Plug-In . SVG Version: 6.00 Build 0)  -->
<!DOCTYPE svg PUBLIC "-//W3C//DTD SVG 1.1//EN" "http://www.w3.org/Graphics/SVG/1.1/DTD/svg11.dtd">
<svg version="1.1" id="Layer_1" xmlns="http://www.w3.org/2000/svg" xmlns:xlink="http://www.w3.org/1999/xlink" x="0px" y="0px"
	 width="75px" height="75px" viewBox="502.5 502.5 75 75" enable-background="new 502.5 502.5 75 75" xml:space="preserve">
<circle fill="#F0AB00" cx="540" cy="540" r="37.5"/>
<g id="_x31_" enable-background="new    ">
	<path fill="#FFFFFF" d="M529.8,558.5v-6.4h6.7v-23.2c-0.9,0.5-2,0.8-3.2,1.2c-1.2,0.3-2.4,0.5-3.4,0.5V524c2.9-0.1,5.2-0.9,6.8-2.5
		h7.7v30.6h5.8v6.4H529.8z"/>
</g>
<g id="_x32_" display="none" enable-background="new    ">
	<path display="inline" fill="#FFFFFF" d="M526.4,558.8V558c0-1.3,0.1-2.7,0.4-4c0.2-1.3,0.7-2.7,1.5-4.1c0.8-1.4,1.9-2.8,3.3-4.2
		c1.5-1.5,3.4-3,5.8-4.5c1.4-0.9,2.7-1.7,3.7-2.4c1-0.7,1.8-1.3,2.5-2c0.6-0.6,1.1-1.3,1.4-2c0.3-0.7,0.5-1.5,0.5-2.4
		c0-1.4-0.4-2.5-1.3-3.3c-0.8-0.8-2-1.2-3.6-1.2c-1.5,0-2.9,0.5-4.3,1.4c-1.4,0.9-2.7,2.2-3.8,3.9l-5.7-4c0.8-1.2,1.7-2.4,2.6-3.3
		c0.9-1,2-1.8,3.1-2.5c1.2-0.7,2.4-1.2,3.8-1.6c1.4-0.4,2.9-0.6,4.5-0.6c4,0,7.1,1,9.2,2.9c2.2,1.9,3.2,4.5,3.2,7.9c0,1-0.1,2-0.3,3
		c-0.2,1-0.6,1.9-1.1,2.9s-1.4,2-2.5,3c-1.1,1-2.5,2.1-4.3,3.2c-2.7,1.7-4.9,3.2-6.5,4.6c-1.6,1.4-2.5,2.6-2.6,3.7h17.5v6.4H526.4z"
		/>
</g>
<g id="_x33_" display="none" enable-background="new    ">
	<path display="inline" fill="#FFFFFF" d="M525.7,552.9l5-4.5c1.2,1.5,2.7,2.6,4.3,3.3c1.6,0.7,3.2,1.1,4.7,1.1
		c2.1,0,3.7-0.4,4.7-1.3c1.1-0.9,1.6-2.2,1.6-3.8c0-2.1-0.7-3.5-2.2-4.3c-1.5-0.8-3.7-1.2-6.6-1.2h-1.9v-5.9h2
		c1.7,0,3.1-0.1,4.1-0.4c1-0.3,1.8-0.6,2.4-1s1-0.9,1.1-1.5c0.2-0.6,0.3-1.2,0.3-1.8c0-1.2-0.4-2.2-1.2-3c-0.8-0.8-2.2-1.1-4.2-1.1
		c-1.4,0-2.8,0.3-4.2,0.8c-1.4,0.5-2.8,1.4-4.2,2.8l-4.4-5.1c1.7-1.6,3.7-2.8,6.1-3.7c2.4-0.9,5-1.3,7.6-1.3c4,0,7.1,0.8,9.3,2.5
		c2.1,1.6,3.2,4,3.2,7c0,2.2-0.6,4-1.8,5.6c-1.2,1.5-3,2.6-5.4,3.1c2.7,0.5,4.8,1.5,6.2,3.2s2.1,3.6,2.1,6c0,1.7-0.3,3.3-1,4.7
		c-0.7,1.4-1.6,2.5-2.9,3.5c-1.2,1-2.7,1.7-4.5,2.2c-1.8,0.5-3.7,0.8-5.9,0.8c-3.2,0-5.9-0.5-8.3-1.6
		C529.4,556.5,527.4,554.9,525.7,552.9z"/>
</g>
<g id="_x34_" display="none" enable-background="new    ">
	<path display="inline" fill="#FFFFFF" d="M524,551.3v-6l16.8-23.9h9v23.4h6.3v6.4h-6.3v7.2h-7.9v-7.2H524z M532.4,544.9h9.5v-13.6
		h-0.1L532.4,544.9z"/>
</g>
<g id="_x35_" display="none" enable-background="new    ">
	<path display="inline" fill="#FFFFFF" d="M525.8,554l4.1-5.3c1.2,1.1,2.6,2,4.2,2.7c1.6,0.7,3.3,1.1,5,1.1c2.5,0,4.2-0.6,5.4-1.8
		c1.1-1.2,1.7-2.8,1.7-4.7c0-2.1-0.5-3.7-1.6-4.9c-1.1-1.2-2.7-1.8-4.8-1.8c-1.3,0-2.5,0.3-3.6,0.9s-2.2,1.5-3.2,2.7l-5.2-1.6
		l1.5-19.9h22.4l-0.4,6h-15.8l-0.7,8.3c0.6-0.6,1.6-1.1,2.8-1.6c1.2-0.5,2.8-0.7,4.7-0.7c2,0,3.7,0.3,5.2,0.9
		c1.5,0.6,2.8,1.5,3.8,2.6s1.8,2.4,2.3,3.9c0.5,1.5,0.8,3.2,0.8,5c0,2-0.3,3.8-1,5.4c-0.7,1.6-1.6,3-2.9,4.2
		c-1.3,1.2-2.8,2.1-4.6,2.7c-1.8,0.7-3.9,1-6.1,1c-3.1,0-5.7-0.4-7.9-1.3C529.4,556.7,527.5,555.5,525.8,554z"/>
</g>
<g id="_x36_" display="none" enable-background="new    ">
	<path display="inline" fill="#FFFFFF" d="M525.4,540.6c0-3.5,0.5-6.6,1.5-9.1c1-2.5,2.2-4.6,3.8-6.2c1.5-1.6,3.3-2.8,5.2-3.5
		c1.9-0.7,3.9-1.1,5.9-1.1c1.4,0,2.6,0.1,3.7,0.3c1.1,0.2,2.1,0.4,2.9,0.7c0.9,0.3,1.6,0.6,2.3,1c0.7,0.4,1.3,0.8,1.8,1.2l-3.4,5.5
		c-1.1-0.7-2.1-1.3-3.2-1.6s-2.3-0.5-3.8-0.5c-2.4,0-4.4,0.9-6,2.8s-2.5,4.5-2.7,7.9c1.3-1,2.7-1.8,4.2-2.4c1.5-0.6,3.2-0.9,5-0.9
		c1.6,0,3.2,0.2,4.6,0.7c1.4,0.5,2.7,1.2,3.8,2.1c1.1,1,1.9,2.2,2.5,3.7c0.6,1.5,0.9,3.3,0.9,5.4c0,1.9-0.3,3.7-1,5.2
		c-0.7,1.6-1.6,2.9-2.8,4c-1.2,1.1-2.7,2-4.4,2.6c-1.7,0.6-3.6,0.9-5.7,0.9c-2.2,0-4.2-0.4-6.1-1.2c-1.8-0.8-3.4-2-4.8-3.6
		c-1.3-1.6-2.4-3.5-3.1-5.8C525.8,546.3,525.4,543.7,525.4,540.6z M533.5,543.8c0.2,3.2,0.9,5.5,2.2,7.1c1.3,1.6,3,2.3,5.3,2.3
		c1,0,1.9-0.2,2.6-0.5c0.7-0.4,1.4-0.8,1.9-1.4c0.5-0.6,0.9-1.2,1.2-2c0.3-0.8,0.4-1.6,0.4-2.4c0-0.8-0.1-1.5-0.3-2.3
		c-0.2-0.7-0.5-1.4-1-2c-0.5-0.6-1.1-1-1.9-1.4c-0.8-0.4-1.7-0.5-2.8-0.5c-1.6,0-3,0.3-4.3,0.9C535.6,542.1,534.5,542.8,533.5,543.8
		z"/>
</g>
<g id="_x37_" display="none" enable-background="new    ">
	<path display="inline" fill="#FFFFFF" d="M527.1,528.1v-6.6h25.9v6l-14.2,31h-8.2l14.1-30.4H527.1z"/>
</g>
<g id="_x38_" display="none" enable-background="new    ">
	<path display="inline" fill="#FFFFFF" d="M525.1,548.8c0-1.2,0.2-2.2,0.6-3.2s1-1.9,1.8-2.7c0.7-0.8,1.6-1.5,2.6-2.2
		c1-0.6,2-1.2,3.2-1.6c-1-0.5-1.9-1.1-2.7-1.6c-0.8-0.6-1.5-1.2-2-1.9s-1-1.5-1.3-2.4c-0.3-0.9-0.4-1.9-0.4-3.1
		c0-1.2,0.3-2.3,0.8-3.4s1.4-2.1,2.5-3c1.1-0.9,2.5-1.6,4.1-2.1c1.7-0.5,3.6-0.8,5.8-0.8c2.2,0,4.2,0.3,5.9,0.8
		c1.7,0.5,3,1.2,4.1,2.1c1.1,0.9,1.9,1.9,2.4,3c0.5,1.1,0.8,2.3,0.8,3.4c0,2-0.6,3.7-1.7,5.2c-1.1,1.5-2.7,2.7-4.7,3.6
		c1.2,0.5,2.3,1.1,3.3,1.7c1,0.6,1.8,1.3,2.5,2c0.7,0.8,1.3,1.6,1.7,2.7c0.4,1,0.6,2.2,0.6,3.6c0,3.2-1.3,5.8-3.9,7.6
		c-2.6,1.9-6.3,2.8-10.9,2.8c-4.6,0-8.3-0.9-10.9-2.8C526.4,554.6,525.1,552.1,525.1,548.8z M533.3,548.3c0,1.4,0.6,2.6,1.7,3.6
		s2.8,1.5,5,1.5c2.1,0,3.8-0.5,5-1.5c1.2-1,1.8-2.2,1.8-3.6c0-1.4-0.6-2.6-1.8-3.5c-1.2-0.9-3-1.9-5.6-2.9c-1.9,0.9-3.4,1.9-4.5,2.9
		C533.8,545.8,533.3,547,533.3,548.3z M534.7,530.7c0,1.4,0.5,2.5,1.5,3.3c1,0.8,2.5,1.5,4.3,2.3c1.7-0.8,2.9-1.7,3.6-2.4
		c0.7-0.8,1.1-1.8,1.1-2.9c0-0.5-0.1-1-0.3-1.5c-0.2-0.5-0.5-1-0.9-1.4c-0.4-0.4-1-0.8-1.6-1c-0.7-0.3-1.5-0.4-2.5-0.4
		c-1,0-1.8,0.1-2.5,0.4s-1.2,0.6-1.7,1c-0.4,0.4-0.7,0.8-0.9,1.3C534.8,529.7,534.7,530.2,534.7,530.7z"/>
</g>
<g id="_x39_" display="none" enable-background="new    ">
	<path display="inline" fill="#FFFFFF" d="M525.5,533.6c0-1.9,0.3-3.7,1-5.3c0.7-1.6,1.6-2.9,2.8-4c1.2-1.1,2.7-2,4.4-2.6
		c1.7-0.6,3.6-0.9,5.7-0.9c2.2,0,4.2,0.4,6.1,1.2c1.8,0.8,3.4,2,4.8,3.6c1.3,1.6,2.4,3.5,3.1,5.8s1.1,5,1.1,8c0,3.6-0.5,6.6-1.4,9.1
		c-1,2.5-2.2,4.5-3.7,6.2c-1.5,1.6-3.3,2.8-5.2,3.5c-1.9,0.7-3.9,1.1-5.8,1.1c-1.4,0-2.7-0.1-3.8-0.3c-1.1-0.2-2.1-0.4-3-0.8
		c-0.9-0.3-1.6-0.7-2.3-1.1c-0.7-0.4-1.3-0.8-1.9-1.2l3.4-5.3c1.1,0.8,2.2,1.3,3.2,1.7c1,0.4,2.4,0.6,3.9,0.6c2.4,0,4.4-0.9,5.9-2.8
		c1.5-1.9,2.5-4.5,2.7-7.9c-1.3,1-2.7,1.8-4.2,2.4s-3.2,0.9-5,0.9c-1.6,0-3.2-0.2-4.6-0.7s-2.7-1.1-3.7-2.1c-1.1-1-1.9-2.2-2.5-3.7
		C525.8,537.5,525.5,535.7,525.5,533.6z M533,533.3c0,0.8,0.1,1.5,0.3,2.2c0.2,0.7,0.5,1.4,1,1.9c0.5,0.6,1.1,1,1.8,1.4
		c0.8,0.3,1.7,0.5,2.9,0.5c1.6,0,3-0.3,4.2-0.8c1.3-0.6,2.4-1.3,3.3-2.2c-0.2-3.1-0.9-5.4-2.2-6.9c-1.3-1.5-3-2.2-5.3-2.2
		c-1,0-1.9,0.2-2.6,0.5c-0.7,0.3-1.4,0.7-1.9,1.3c-0.5,0.5-0.9,1.2-1.1,1.9C533.1,531.7,533,532.5,533,533.3z"/>
</g>
<g id="_x31_0" display="none" enable-background="new    ">
	<path display="inline" fill="#FFFFFF" d="M513.2,558.5V552h6.7v-23.2c-0.9,0.5-2,0.8-3.2,1.2c-1.2,0.3-2.4,0.5-3.4,0.5v-6.6
		c2.9-0.1,5.2-0.9,6.8-2.5h7.7V552h5.8v6.4H513.2z"/>
	<path display="inline" fill="#FFFFFF" d="M536,539.9c0-2.9,0.3-5.5,1-7.8c0.7-2.3,1.7-4.4,3-6s2.9-3,4.8-3.9
		c1.9-0.9,4.1-1.4,6.5-1.4c2.4,0,4.6,0.5,6.5,1.4s3.5,2.2,4.8,3.9c1.3,1.7,2.3,3.7,3,6c0.7,2.3,1,5,1,7.8c0,2.9-0.3,5.5-1,7.9
		c-0.7,2.4-1.7,4.4-3,6.1c-1.3,1.7-2.9,3-4.8,3.9c-1.9,0.9-4.1,1.4-6.5,1.4c-2.4,0-4.6-0.5-6.5-1.4c-1.9-0.9-3.5-2.2-4.8-3.9
		c-1.3-1.7-2.3-3.7-3-6.1C536.4,545.5,536,542.8,536,539.9z M544.1,539.9c0,4.3,0.6,7.5,1.9,9.6c1.3,2.2,3.1,3.2,5.4,3.2
		c2.4,0,4.2-1.1,5.5-3.2c1.2-2.2,1.9-5.4,1.9-9.6c0-4.3-0.6-7.4-1.9-9.5c-1.3-2.1-3.1-3.1-5.4-3.1
		C546.5,527.2,544.1,531.5,544.1,539.9z"/>
</g>
<g id="_x31_1" display="none" enable-background="new    ">
	<path display="inline" fill="#FFFFFF" d="M518.4,558.5v-6.4h6.7v-23.2c-0.9,0.5-2,0.8-3.2,1.2c-1.2,0.3-2.4,0.5-3.4,0.5V524
		c2.9-0.1,5.2-0.9,6.8-2.5h7.7v30.6h5.8v6.4H518.4z"/>
	<path display="inline" fill="#FFFFFF" d="M541.3,558.5v-6.4h6.7v-23.2c-0.9,0.5-2,0.8-3.2,1.2c-1.2,0.3-2.4,0.5-3.4,0.5V524
		c2.9-0.1,5.2-0.9,6.8-2.5h7.7v30.6h5.8v6.4H541.3z"/>
</g>
<g id="_x31_2" display="none" enable-background="new    ">
	<path display="inline" fill="#FFFFFF" d="M515.1,558.8v-6.4h6.7v-23.2c-0.9,0.5-2,0.8-3.2,1.2c-1.2,0.3-2.4,0.5-3.4,0.5v-6.6
		c2.9-0.1,5.2-0.9,6.8-2.5h7.7v30.6h5.8v6.4H515.1z"/>
	<path display="inline" fill="#FFFFFF" d="M537.7,558.8V558c0-1.3,0.1-2.7,0.4-4c0.2-1.3,0.7-2.7,1.5-4.1c0.8-1.4,1.9-2.8,3.3-4.2
		s3.4-3,5.8-4.5c1.4-0.9,2.7-1.7,3.7-2.4c1-0.7,1.8-1.3,2.5-2c0.6-0.6,1.1-1.3,1.4-2c0.3-0.7,0.5-1.5,0.5-2.4c0-1.4-0.4-2.5-1.3-3.3
		c-0.8-0.8-2-1.2-3.6-1.2c-1.5,0-2.9,0.5-4.3,1.4c-1.4,0.9-2.7,2.2-3.8,3.9l-5.7-4c0.8-1.2,1.7-2.4,2.6-3.3c0.9-1,2-1.8,3.1-2.5
		c1.2-0.7,2.4-1.2,3.8-1.6c1.4-0.4,2.9-0.6,4.5-0.6c4,0,7.1,1,9.2,2.9c2.2,1.9,3.2,4.5,3.2,7.9c0,1-0.1,2-0.3,3
		c-0.2,1-0.6,1.9-1.1,2.9s-1.4,2-2.5,3c-1.1,1-2.5,2.1-4.3,3.2c-2.7,1.7-4.9,3.2-6.5,4.6c-1.6,1.4-2.5,2.6-2.6,3.7h17.5v6.4H537.7z"
		/>
</g>
<g id="_x31_3" display="none" enable-background="new    ">
	<path display="inline" fill="#FFFFFF" d="M514.8,558.5V552h6.7v-23.2c-0.9,0.5-2,0.8-3.2,1.2c-1.2,0.3-2.4,0.5-3.4,0.5v-6.6
		c2.9-0.1,5.2-0.9,6.8-2.5h7.7V552h5.8v6.4H514.8z"/>
	<path display="inline" fill="#FFFFFF" d="M536.5,552.9l5-4.5c1.2,1.5,2.7,2.6,4.3,3.3c1.6,0.7,3.2,1.1,4.7,1.1
		c2.1,0,3.7-0.4,4.7-1.3c1.1-0.9,1.6-2.2,1.6-3.8c0-2.1-0.7-3.5-2.2-4.3c-1.5-0.8-3.7-1.2-6.6-1.2h-1.9v-5.9h2
		c1.7,0,3.1-0.1,4.1-0.4c1-0.3,1.8-0.6,2.4-1s1-0.9,1.1-1.5c0.2-0.6,0.3-1.2,0.3-1.8c0-1.2-0.4-2.2-1.2-3c-0.8-0.8-2.2-1.1-4.2-1.1
		c-1.4,0-2.8,0.3-4.2,0.8c-1.4,0.5-2.8,1.4-4.2,2.8l-4.4-5.1c1.7-1.6,3.7-2.8,6.1-3.7c2.4-0.9,5-1.3,7.6-1.3c4,0,7.1,0.8,9.3,2.5
		c2.1,1.6,3.2,4,3.2,7c0,2.2-0.6,4-1.8,5.6c-1.2,1.5-3,2.6-5.4,3.1c2.7,0.5,4.8,1.5,6.2,3.2c1.4,1.6,2.1,3.6,2.1,6
		c0,1.7-0.3,3.3-1,4.7c-0.7,1.4-1.6,2.5-2.9,3.5c-1.2,1-2.7,1.7-4.5,2.2c-1.8,0.5-3.7,0.8-5.9,0.8c-3.2,0-5.9-0.5-8.3-1.6
		C540.3,556.5,538.2,554.9,536.5,552.9z"/>
</g>
<g id="_x31_4" display="none" enable-background="new    ">
	<path display="inline" fill="#FFFFFF" d="M513.1,558.5v-6.4h6.7v-23.2c-0.9,0.5-2,0.8-3.2,1.2c-1.2,0.3-2.4,0.5-3.4,0.5V524
		c2.9-0.1,5.2-0.9,6.8-2.5h7.7v30.6h5.8v6.4H513.1z"/>
	<path display="inline" fill="#FFFFFF" d="M534.8,551.3v-6l16.8-23.9h9v23.4h6.3v6.4h-6.3v7.2h-7.9v-7.2H534.8z M543.2,544.9h9.5
		v-13.6h-0.1L543.2,544.9z"/>
</g>
<g id="_x31_5" display="none" enable-background="new    ">
	<path display="inline" fill="#FFFFFF" d="M514.7,558.2v-6.4h6.7v-23.2c-0.9,0.5-2,0.8-3.2,1.2c-1.2,0.3-2.4,0.5-3.4,0.5v-6.6
		c2.9-0.1,5.2-0.9,6.8-2.5h7.7v30.6h5.8v6.4H514.7z"/>
	<path display="inline" fill="#FFFFFF" d="M536.8,554l4.1-5.3c1.2,1.1,2.6,2,4.2,2.7c1.6,0.7,3.3,1.1,5,1.1c2.5,0,4.2-0.6,5.4-1.8
		c1.1-1.2,1.7-2.8,1.7-4.7c0-2.1-0.5-3.7-1.6-4.9c-1.1-1.2-2.7-1.8-4.8-1.8c-1.3,0-2.5,0.3-3.6,0.9s-2.2,1.5-3.2,2.7l-5.2-1.6
		l1.5-19.9h22.4l-0.4,6h-15.8l-0.7,8.3c0.6-0.6,1.6-1.1,2.8-1.6s2.8-0.7,4.7-0.7c2,0,3.7,0.3,5.2,0.9c1.5,0.6,2.8,1.5,3.8,2.6
		s1.8,2.4,2.3,3.9c0.5,1.5,0.8,3.2,0.8,5c0,2-0.3,3.8-1,5.4c-0.7,1.6-1.6,3-2.9,4.2c-1.3,1.2-2.8,2.1-4.6,2.7c-1.8,0.7-3.9,1-6.1,1
		c-3.1,0-5.7-0.4-7.9-1.3C540.5,556.7,538.5,555.5,536.8,554z"/>
</g>
<g id="_x31_6" display="none" enable-background="new    ">
	<path display="inline" fill="#FFFFFF" d="M514.1,558.5V552h6.7v-23.2c-0.9,0.5-2,0.8-3.2,1.2c-1.2,0.3-2.4,0.5-3.4,0.5v-6.6
		c2.9-0.1,5.2-0.9,6.8-2.5h7.7V552h5.8v6.4H514.1z"/>
	<path display="inline" fill="#FFFFFF" d="M536.8,540.6c0-3.5,0.5-6.6,1.5-9.1c1-2.5,2.2-4.6,3.8-6.2c1.5-1.6,3.3-2.8,5.2-3.5
		c1.9-0.7,3.9-1.1,5.9-1.1c1.4,0,2.6,0.1,3.7,0.3c1.1,0.2,2.1,0.4,2.9,0.7c0.9,0.3,1.6,0.6,2.3,1c0.7,0.4,1.3,0.8,1.8,1.2l-3.4,5.5
		c-1.1-0.7-2.1-1.3-3.2-1.6s-2.3-0.5-3.8-0.5c-2.4,0-4.4,0.9-6,2.8s-2.5,4.5-2.7,7.9c1.3-1,2.7-1.8,4.2-2.4c1.5-0.6,3.2-0.9,5-0.9
		c1.6,0,3.2,0.2,4.6,0.7c1.4,0.5,2.7,1.2,3.8,2.1c1.1,1,1.9,2.2,2.5,3.7c0.6,1.5,0.9,3.3,0.9,5.4c0,1.9-0.3,3.7-1,5.2
		c-0.7,1.6-1.6,2.9-2.8,4c-1.2,1.1-2.7,2-4.4,2.6c-1.7,0.6-3.6,0.9-5.7,0.9c-2.2,0-4.2-0.4-6.1-1.2c-1.8-0.8-3.4-2-4.8-3.6
		c-1.3-1.6-2.4-3.5-3.1-5.8C537.2,546.3,536.8,543.7,536.8,540.6z M544.9,543.8c0.2,3.2,0.9,5.5,2.2,7.1c1.3,1.6,3,2.3,5.3,2.3
		c1,0,1.9-0.2,2.6-0.5c0.7-0.4,1.4-0.8,1.9-1.4c0.5-0.6,0.9-1.2,1.2-2c0.3-0.8,0.4-1.6,0.4-2.4c0-0.8-0.1-1.5-0.3-2.3
		c-0.2-0.7-0.5-1.4-1-2c-0.5-0.6-1.1-1-1.9-1.4c-0.8-0.4-1.7-0.5-2.8-0.5c-1.6,0-3,0.3-4.3,0.9C546.9,542.1,545.8,542.8,544.9,543.8
		z"/>
</g>
<g id="_x31_7" display="none" enable-background="new    ">
	<path display="inline" fill="#FFFFFF" d="M516.6,558.5v-6.4h6.7v-23.2c-0.9,0.5-2,0.8-3.2,1.2c-1.2,0.3-2.4,0.5-3.4,0.5V524
		c2.9-0.1,5.2-0.9,6.8-2.5h7.7v30.6h5.8v6.4H516.6z"/>
	<path display="inline" fill="#FFFFFF" d="M537.5,528.1v-6.6h25.9v6l-14.2,31H541l14.1-30.4H537.5z"/>
</g>
<g id="_x31_8" display="none" enable-background="new    ">
	<path display="inline" fill="#FFFFFF" d="M514,558.5V552h6.7v-23.2c-0.9,0.5-2,0.8-3.2,1.2c-1.2,0.3-2.4,0.5-3.4,0.5v-6.6
		c2.9-0.1,5.2-0.9,6.8-2.5h7.7V552h5.8v6.4H514z"/>
	<path display="inline" fill="#FFFFFF" d="M536.3,548.8c0-1.2,0.2-2.2,0.6-3.2c0.4-1,1-1.9,1.8-2.7c0.7-0.8,1.6-1.5,2.6-2.2
		c1-0.6,2-1.2,3.2-1.6c-1-0.5-1.9-1.1-2.7-1.6c-0.8-0.6-1.5-1.2-2-1.9s-1-1.5-1.3-2.4c-0.3-0.9-0.4-1.9-0.4-3.1
		c0-1.2,0.3-2.3,0.8-3.4c0.5-1.1,1.4-2.1,2.5-3c1.1-0.9,2.5-1.6,4.1-2.1c1.7-0.5,3.6-0.8,5.8-0.8c2.2,0,4.2,0.3,5.9,0.8
		c1.7,0.5,3,1.2,4.1,2.1c1.1,0.9,1.9,1.9,2.4,3c0.5,1.1,0.8,2.3,0.8,3.4c0,2-0.6,3.7-1.7,5.2c-1.1,1.5-2.7,2.7-4.7,3.6
		c1.2,0.5,2.3,1.1,3.3,1.7c1,0.6,1.8,1.3,2.5,2c0.7,0.8,1.3,1.6,1.7,2.7c0.4,1,0.6,2.2,0.6,3.6c0,3.2-1.3,5.8-3.9,7.6
		c-2.6,1.9-6.3,2.8-10.9,2.8c-4.6,0-8.3-0.9-10.9-2.8C537.6,554.6,536.3,552.1,536.3,548.8z M544.5,548.3c0,1.4,0.6,2.6,1.7,3.6
		s2.8,1.5,5,1.5c2.1,0,3.8-0.5,5-1.5c1.2-1,1.8-2.2,1.8-3.6c0-1.4-0.6-2.6-1.8-3.5s-3-1.9-5.6-2.9c-1.9,0.9-3.4,1.9-4.5,2.9
		S544.5,547,544.5,548.3z M545.8,530.7c0,1.4,0.5,2.5,1.5,3.3c1,0.8,2.5,1.5,4.3,2.3c1.7-0.8,2.9-1.7,3.6-2.4
		c0.7-0.8,1.1-1.8,1.1-2.9c0-0.5-0.1-1-0.3-1.5c-0.2-0.5-0.5-1-0.9-1.4c-0.4-0.4-1-0.8-1.6-1c-0.7-0.3-1.5-0.4-2.5-0.4
		c-1,0-1.8,0.1-2.5,0.4c-0.7,0.3-1.2,0.6-1.7,1c-0.4,0.4-0.7,0.8-0.9,1.3C545.9,529.7,545.8,530.2,545.8,530.7z"/>
</g>
<g id="_x31_9" display="none" enable-background="new    ">
	<path display="inline" fill="#FFFFFF" d="M514.3,558.5V552h6.7v-23.2c-0.9,0.5-2,0.8-3.2,1.2c-1.2,0.3-2.4,0.5-3.4,0.5v-6.6
		c2.9-0.1,5.2-0.9,6.8-2.5h7.7V552h5.8v6.4H514.3z"/>
	<path display="inline" fill="#FFFFFF" d="M536.7,533.6c0-1.9,0.3-3.7,1-5.3s1.6-2.9,2.8-4c1.2-1.1,2.7-2,4.4-2.6
		c1.7-0.6,3.6-0.9,5.7-0.9c2.2,0,4.2,0.4,6.1,1.2c1.8,0.8,3.4,2,4.8,3.6c1.3,1.6,2.4,3.5,3.1,5.8s1.1,5,1.1,8c0,3.6-0.5,6.6-1.4,9.1
		c-1,2.5-2.2,4.5-3.7,6.2c-1.5,1.6-3.3,2.8-5.2,3.5c-1.9,0.7-3.9,1.1-5.8,1.1c-1.4,0-2.7-0.1-3.8-0.3c-1.1-0.2-2.1-0.4-3-0.8
		c-0.9-0.3-1.6-0.7-2.3-1.1c-0.7-0.4-1.3-0.8-1.9-1.2l3.4-5.3c1.1,0.8,2.2,1.3,3.2,1.7c1,0.4,2.4,0.6,3.9,0.6c2.4,0,4.4-0.9,5.9-2.8
		c1.5-1.9,2.5-4.5,2.7-7.9c-1.3,1-2.7,1.8-4.2,2.4s-3.2,0.9-5,0.9c-1.6,0-3.2-0.2-4.6-0.7c-1.4-0.4-2.7-1.1-3.7-2.1
		c-1.1-1-1.9-2.2-2.5-3.7C537,537.5,536.7,535.7,536.7,533.6z M544.2,533.3c0,0.8,0.1,1.5,0.3,2.2c0.2,0.7,0.5,1.4,1,1.9
		c0.5,0.6,1.1,1,1.8,1.4c0.8,0.3,1.7,0.5,2.9,0.5c1.6,0,3-0.3,4.2-0.8c1.3-0.6,2.4-1.3,3.3-2.2c-0.2-3.1-0.9-5.4-2.2-6.9
		c-1.3-1.5-3-2.2-5.3-2.2c-1,0-1.9,0.2-2.6,0.5c-0.7,0.3-1.4,0.7-1.9,1.3c-0.5,0.5-0.9,1.2-1.1,1.9
		C544.3,531.7,544.2,532.5,544.2,533.3z"/>
</g>
<g id="_x32_0" display="none" enable-background="new    ">
	<path display="inline" fill="#FFFFFF" d="M509.2,558.5v-0.8c0-1.3,0.1-2.7,0.4-4c0.2-1.3,0.7-2.7,1.5-4.1c0.8-1.4,1.9-2.8,3.3-4.2
		c1.5-1.5,3.4-3,5.8-4.5c1.4-0.9,2.7-1.7,3.7-2.4c1-0.7,1.8-1.3,2.5-2c0.6-0.6,1.1-1.3,1.4-2c0.3-0.7,0.5-1.5,0.5-2.4
		c0-1.4-0.4-2.5-1.3-3.3c-0.8-0.8-2-1.2-3.6-1.2c-1.5,0-2.9,0.5-4.3,1.4c-1.4,0.9-2.7,2.2-3.8,3.9l-5.7-4c0.8-1.2,1.7-2.4,2.6-3.3
		c0.9-1,2-1.8,3.1-2.5c1.2-0.7,2.4-1.2,3.8-1.6c1.4-0.4,2.9-0.6,4.5-0.6c4,0,7.1,1,9.2,2.9c2.2,1.9,3.2,4.5,3.2,7.9c0,1-0.1,2-0.3,3
		c-0.2,1-0.6,1.9-1.1,2.9s-1.4,2-2.5,3c-1.1,1-2.5,2.1-4.3,3.2c-2.7,1.7-4.9,3.2-6.5,4.6c-1.6,1.4-2.5,2.6-2.6,3.7h17.5v6.4H509.2z"
		/>
	<path display="inline" fill="#FFFFFF" d="M540.1,539.9c0-2.9,0.3-5.5,1-7.8c0.7-2.3,1.7-4.4,3-6s2.9-3,4.8-3.9
		c1.9-0.9,4.1-1.4,6.5-1.4c2.4,0,4.6,0.5,6.5,1.4s3.5,2.2,4.8,3.9c1.3,1.7,2.3,3.7,3,6c0.7,2.3,1,5,1,7.8c0,2.9-0.3,5.5-1,7.9
		c-0.7,2.4-1.7,4.4-3,6.1c-1.3,1.7-2.9,3-4.8,3.9c-1.9,0.9-4.1,1.4-6.5,1.4c-2.4,0-4.6-0.5-6.5-1.4c-1.9-0.9-3.5-2.2-4.8-3.9
		c-1.3-1.7-2.3-3.7-3-6.1C540.4,545.5,540.1,542.8,540.1,539.9z M548.2,539.9c0,4.3,0.6,7.5,1.9,9.6c1.3,2.2,3.1,3.2,5.4,3.2
		c2.4,0,4.2-1.1,5.5-3.2c1.2-2.2,1.9-5.4,1.9-9.6c0-4.3-0.6-7.4-1.9-9.5c-1.3-2.1-3.1-3.1-5.4-3.1
		C550.6,527.2,548.2,531.5,548.2,539.9z"/>
</g>
</svg>
